# xmcd
#
# Track frame offsets:
#	150
#	13055
#	25405
#	35959
#	52142
#	64413
#	76918
#	89666
#	100150
#	117583
#	129153
#	141954
#	154524
#	167147
#	179999
#	189746
#	202755
#	214715
#	231892
#	243517
#
# Disc length: 3406 seconds
#
# Revision: 1
# Processed by: cddbd v1.5.2PL0 Copyright (c) Steve Scherf et al.
# Submitted via: EZCDAudioConverter 1.5.4.1
#
DISCID=2a0d4c14
DTITLE=Merle Haggard - ICON [CD2]
DYEAR=2006
DGENRE=Country
TTITLE0=Cherokee Maiden
TTITLE1=Farmer's Daughter
TTITLE2=The Roots of My Raising
TTITLE3=I take a lot of Pride In What I Am
TTITLE4=Holding Things Togrther
TTITLE5=Ramblin' Fever
TTITLE6=Misery And Gin
TTITLE7=It's Not Love (But It's Not Bad)
TTITLE8=The Emptiest Arms In The World
TTITLE9=Swinging Doors
TTITLE10=The Legend Of Bonnie And Clyde
TTITLE11=Everybody's Had The Blues
TTITLE12=From Graceland To The Promised Land
TTITLE13=I'm Always On A Mountain When I Fall
TTITLE14=(My Freinds Are Gonna Be) Strangers
TTITLE15=I Think I'll Just Stay Here And Drink
TTITLE16=Someday We'll Look Back
TTITLE17=It's Been A Great Afternoon
TTITLE18=Old Man From The Mountains
TTITLE19=It's All In The Movies
EXTD=
EXTT0=
EXTT1=
EXTT2=
EXTT3=
EXTT4=
EXTT5=
EXTT6=
EXTT7=
EXTT8=
EXTT9=
EXTT10=
EXTT11=
EXTT12=
EXTT13=
EXTT14=
EXTT15=
EXTT16=
EXTT17=
EXTT18=
EXTT19=
PLAYORDER=
